# xmcd CD database file
#
# Track frame offsets:
#	150
#	25250
#	45900
#	65432
#	84297
#
# Disc length: 1318 seconds
#
# Revision: 0
# Processed by: cddbd v1.5.1PL2 Copyright (c) Steve Scherf et al.
# Submitted via: CDex 1.51
#
DISCID=2f052405
DTITLE=Al DiMeola - The Infinite Desire: Special Radio Edits
DYEAR=1998
DGENRE=Jazz
TTITLE0=The Infinite Desire
TTITLE1=In My Mother's Eyes
TTITLE2=Beyond the Mirage
TTITLE3=Race with Devil on Turkish Highway
TTITLE4=Shaking the Spirits
EXTD=YEAR: 1998
EXTT0=
EXTT1=
EXTT2=
EXTT3=
EXTT4=
PLAYORDER=
